<svg id="visual" viewBox="0 0 900 600" width="900" height="600" xmlns="http://www.w3.org/2000/svg" xmlns:xlink="http://www.w3.org/1999/xlink" version="1.1"><rect x="0" y="0" width="900" height="600" fill="#a19de4"></rect><g transform="translate(424.7960779524258 272.9919939110336)"><path d="M144.2 -246.8C176.1 -231.4 183.8 -171 217.7 -122.3C251.6 -73.7 311.8 -36.8 322.9 6.4C334 49.7 296.1 99.3 264.3 151.7C232.6 204.1 207 259.2 164 284.7C121 310.2 60.5 306.1 2 302.7C-56.5 299.2 -113 296.4 -161.4 274C-209.7 251.6 -249.9 209.5 -252.9 160.6C-255.9 111.7 -221.7 55.8 -227.5 -3.3C-233.3 -62.5 -279 -125 -274.1 -170.6C-269.2 -216.2 -213.6 -244.9 -159.5 -247.5C-105.3 -250.1 -52.7 -226.6 1.7 -229.6C56.2 -232.6 112.3 -262.2 144.2 -246.8" fill="#7d76df"></path></g></svg>