<svg id="visual" viewBox="0 0 900 600" width="900" height="600" xmlns="http://www.w3.org/2000/svg" xmlns:xlink="http://www.w3.org/1999/xlink" version="1.1"><rect x="0" y="0" width="900" height="600" fill="#ede7f9"></rect><g fill="#ddd3f4"><circle r="35" cx="882" cy="274"></circle><circle r="13" cx="56" cy="164"></circle><circle r="18" cx="458" cy="343"></circle><circle r="20" cx="794" cy="598"></circle><circle r="12" cx="317" cy="574"></circle><circle r="14" cx="525" cy="567"></circle><circle r="33" cx="181" cy="385"></circle><circle r="28" cx="68" cy="532"></circle><circle r="32" cx="90" cy="387"></circle><circle r="22" cx="603" cy="35"></circle><circle r="14" cx="407" cy="477"></circle><circle r="12" cx="446" cy="127"></circle><circle r="17" cx="811" cy="408"></circle><circle r="28" cx="528" cy="460"></circle><circle r="17" cx="577" cy="283"></circle><circle r="17" cx="277" cy="296"></circle><circle r="12" cx="779" cy="480"></circle><circle r="16" cx="657" cy="574"></circle><circle r="26" cx="350" cy="103"></circle><circle r="33" cx="403" cy="4"></circle></g></svg>