<svg id="visual" viewBox="0 0 900 600" width="900" height="600" xmlns="http://www.w3.org/2000/svg" xmlns:xlink="http://www.w3.org/1999/xlink" version="1.1"><rect width="900" height="600" fill="#ebe6f8"></rect><g><g transform="translate(24 169)"><path d="M47.7 -2.5C47.7 23.7 23.9 47.3 -3.1 47.3C-30.1 47.3 -60.3 23.7 -60.3 -2.5C-60.3 -28.6 -30.1 -57.2 -3.1 -57.2C23.9 -57.2 47.7 -28.6 47.7 -2.5Z" fill="#d9d2f3"></path></g><g transform="translate(778 335)"><path d="M11.9 -0.2C11.9 4.9 5.9 9.9 0.5 9.9C-4.9 9.9 -9.9 4.9 -9.9 -0.2C-9.9 -5.4 -4.9 -10.9 0.5 -10.9C5.9 -10.9 11.9 -5.4 11.9 -0.2Z" fill="#d9d2f3"></path></g><g transform="translate(367 82)"><path d="M9.1 0.5C9.1 4.6 4.6 9.2 0 9.2C-4.6 9.2 -9.2 4.6 -9.2 0.5C-9.2 -3.5 -4.6 -7.1 0 -7.1C4.6 -7.1 9.1 -3.5 9.1 0.5Z" fill="#d9d2f3"></path></g><g transform="translate(290 541)"><path d="M45.4 -0.2C45.4 21.8 22.7 43.6 1 43.6C-20.7 43.6 -41.4 21.8 -41.4 -0.2C-41.4 -22.2 -20.7 -44.3 1 -44.3C22.7 -44.3 45.4 -22.2 45.4 -0.2Z" fill="#d9d2f3"></path></g><g transform="translate(544 582)"><path d="M10.7 -0.5C10.7 4.3 5.3 8.7 -0.1 8.7C-5.5 8.7 -11.1 4.3 -11.1 -0.5C-11.1 -5.3 -5.5 -10.6 -0.1 -10.6C5.3 -10.6 10.7 -5.3 10.7 -0.5Z" fill="#d9d2f3"></path></g><g transform="translate(753 36)"><path d="M53.6 -3.3C53.6 20.9 26.8 41.9 3 41.9C-20.8 41.9 -41.6 20.9 -41.6 -3.3C-41.6 -27.5 -20.8 -55 3 -55C26.8 -55 53.6 -27.5 53.6 -3.3Z" fill="#d9d2f3"></path></g><g transform="translate(366 296)"><path d="M10.5 -0.2C10.5 5.4 5.2 10.9 0.1 10.9C-5.1 10.9 -10.2 5.4 -10.2 -0.2C-10.2 -5.9 -5.1 -11.7 0.1 -11.7C5.2 -11.7 10.5 -5.9 10.5 -0.2Z" fill="#d9d2f3"></path></g><g transform="translate(827 556)"><path d="M35.7 2.3C35.7 23.5 17.8 46.9 -2.8 46.9C-23.3 46.9 -46.7 23.5 -46.7 2.3C-46.7 -18.9 -23.3 -37.9 -2.8 -37.9C17.8 -37.9 35.7 -18.9 35.7 2.3Z" fill="#d9d2f3"></path></g><g transform="translate(154 24)"><path d="M18.5 0.4C18.5 10.3 9.2 20.7 0.2 20.7C-8.7 20.7 -17.5 10.3 -17.5 0.4C-17.5 -9.6 -8.7 -19.2 0.2 -19.2C9.2 -19.2 18.5 -9.6 18.5 0.4Z" fill="#d9d2f3"></path></g><g transform="translate(103 426)"><path d="M50.4 -0.8C50.4 21.2 25.2 42.4 -0.3 42.4C-25.7 42.4 -51.4 21.2 -51.4 -0.8C-51.4 -22.8 -25.7 -45.6 -0.3 -45.6C25.2 -45.6 50.4 -22.8 50.4 -0.8Z" fill="#d9d2f3"></path></g><g transform="translate(617 240)"><path d="M23.6 -1.2C23.6 12.1 11.8 24.2 -0.8 24.2C-13.4 24.2 -26.7 12.1 -26.7 -1.2C-26.7 -14.5 -13.4 -29.1 -0.8 -29.1C11.8 -29.1 23.6 -14.5 23.6 -1.2Z" fill="#d9d2f3"></path></g><g transform="translate(556 63)"><path d="M42.8 0.6C42.8 20.6 21.4 41.2 0.3 41.2C-20.8 41.2 -41.7 20.6 -41.7 0.6C-41.7 -19.4 -20.8 -38.8 0.3 -38.8C21.4 -38.8 42.8 -19.4 42.8 0.6Z" fill="#d9d2f3"></path></g><g transform="translate(879 177)"><path d="M26.7 -0.4C26.7 11.9 13.4 23.9 0.2 23.9C-12.9 23.9 -25.8 11.9 -25.8 -0.4C-25.8 -12.8 -12.9 -25.6 0.2 -25.6C13.4 -25.6 26.7 -12.8 26.7 -0.4Z" fill="#d9d2f3"></path></g></g></svg>