<svg id="visual" viewBox="0 0 900 600" width="900" height="600" xmlns="http://www.w3.org/2000/svg" xmlns:xlink="http://www.w3.org/1999/xlink" version="1.1"><rect x="0" y="0" width="900" height="600" fill="#938DE5"></rect><defs><linearGradient id="grad1_0" x1="33.3%" y1="0%" x2="100%" y2="100%"><stop offset="20%" stop-color="#665bdd" stop-opacity="1"></stop><stop offset="80%" stop-color="#665bdd" stop-opacity="1"></stop></linearGradient></defs><defs><linearGradient id="grad1_1" x1="33.3%" y1="0%" x2="100%" y2="100%"><stop offset="20%" stop-color="#665bdd" stop-opacity="1"></stop><stop offset="80%" stop-color="#7d74e2" stop-opacity="1"></stop></linearGradient></defs><defs><linearGradient id="grad1_2" x1="33.3%" y1="0%" x2="100%" y2="100%"><stop offset="20%" stop-color="#938de5" stop-opacity="1"></stop><stop offset="80%" stop-color="#7d74e2" stop-opacity="1"></stop></linearGradient></defs><defs><linearGradient id="grad2_0" x1="0%" y1="0%" x2="66.7%" y2="100%"><stop offset="20%" stop-color="#665bdd" stop-opacity="1"></stop><stop offset="80%" stop-color="#665bdd" stop-opacity="1"></stop></linearGradient></defs><defs><linearGradient id="grad2_1" x1="0%" y1="0%" x2="66.7%" y2="100%"><stop offset="20%" stop-color="#7d74e2" stop-opacity="1"></stop><stop offset="80%" stop-color="#665bdd" stop-opacity="1"></stop></linearGradient></defs><defs><linearGradient id="grad2_2" x1="0%" y1="0%" x2="66.7%" y2="100%"><stop offset="20%" stop-color="#7d74e2" stop-opacity="1"></stop><stop offset="80%" stop-color="#938de5" stop-opacity="1"></stop></linearGradient></defs><g transform="translate(900, 0)"><path d="M0 405.6C-42.6 402.3 -85.2 398.9 -125.3 385.8C-165.5 372.7 -203.3 349.8 -232.8 320.4C-262.3 290.9 -283.5 254.9 -303.4 220.4C-323.3 185.9 -341.7 153 -358.5 116.5C-375.4 80 -390.5 40 -405.6 0L0 0Z" fill="#8881e3"></path><path d="M0 270.4C-28.4 268.2 -56.8 265.9 -83.6 257.2C-110.3 248.4 -135.5 233.2 -155.2 213.6C-174.8 194 -189 169.9 -202.3 146.9C-215.5 124 -227.8 102 -239 77.7C-250.2 53.3 -260.3 26.7 -270.4 0L0 0Z" fill="#7268df"></path><path d="M0 135.2C-14.2 134.1 -28.4 133 -41.8 128.6C-55.2 124.2 -67.8 116.6 -77.6 106.8C-87.4 97 -94.5 85 -101.1 73.5C-107.8 62 -113.9 51 -119.5 38.8C-125.1 26.7 -130.2 13.3 -135.2 0L0 0Z" fill="#665bdd"></path></g><g transform="translate(0, 600)"><path d="M0 -405.6C40.1 -395.3 80.2 -385 121.8 -374.7C163.3 -364.5 206.3 -354.3 238.4 -328.2C270.5 -302 291.7 -259.8 303.4 -220.4C315.1 -181 317.4 -144.4 332.9 -108.2C348.3 -71.9 377 -35.9 405.6 0L0 0Z" fill="#8881e3"></path><path d="M0 -270.4C26.7 -263.5 53.5 -256.6 81.2 -249.8C108.9 -243 137.6 -236.2 158.9 -218.8C180.3 -201.3 194.4 -173.2 202.3 -146.9C210.1 -120.7 211.6 -96.3 221.9 -72.1C232.2 -47.9 251.3 -24 270.4 0L0 0Z" fill="#7268df"></path><path d="M0 -135.2C13.4 -131.8 26.7 -128.3 40.6 -124.9C54.4 -121.5 68.8 -118.1 79.5 -109.4C90.2 -100.7 97.2 -86.6 101.1 -73.5C105 -60.3 105.8 -48.1 111 -36.1C116.1 -24 125.7 -12 135.2 0L0 0Z" fill="#665bdd"></path></g></svg>